solid Exported from Blender-2.80 (sub 75)
facet normal 0.000000 0.000000 -1.000000
outer loop
vertex 1.000000 -1.000000 -1.000000
vertex -1.000000 1.000000 -1.000000
vertex 1.000000 1.000000 -1.000000
endloop
endfacet
facet normal 0.000000 0.000000 1.000000
outer loop
vertex -1.000000 1.000000 1.000000
vertex 1.000000 -1.000001 1.000000
vertex 1.000000 1.000000 1.000000
endloop
endfacet
facet normal 1.000000 0.000000 -0.000000
outer loop
vertex 1.000000 1.000000 1.000000
vertex 1.000000 -1.000000 -1.000000
vertex 1.000000 1.000000 -1.000000
endloop
endfacet
facet normal -0.000000 -1.000000 -0.000000
outer loop
vertex 1.000000 -1.000001 1.000000
vertex -1.000000 -1.000000 -1.000000
vertex 1.000000 -1.000000 -1.000000
endloop
endfacet
facet normal -1.000000 0.000000 -0.000000
outer loop
vertex -1.000000 -1.000000 -1.000000
vertex -1.000000 1.000000 1.000000
vertex -1.000000 1.000000 -1.000000
endloop
endfacet
facet normal 0.000000 1.000000 0.000000
outer loop
vertex 1.000000 1.000000 -1.000000
vertex -1.000000 1.000000 1.000000
vertex 1.000000 1.000000 1.000000
endloop
endfacet
facet normal 0.000000 0.000000 -1.000000
outer loop
vertex 1.000000 -1.000000 -1.000000
vertex -1.000000 -1.000000 -1.000000
vertex -1.000000 1.000000 -1.000000
endloop
endfacet
facet normal 0.000000 0.000000 1.000000
outer loop
vertex -1.000000 1.000000 1.000000
vertex -1.000000 -1.000000 1.000000
vertex 1.000000 -1.000001 1.000000
endloop
endfacet
facet normal 1.000000 -0.000001 0.000000
outer loop
vertex 1.000000 1.000000 1.000000
vertex 1.000000 -1.000001 1.000000
vertex 1.000000 -1.000000 -1.000000
endloop
endfacet
facet normal -0.000000 -1.000000 0.000000
outer loop
vertex 1.000000 -1.000001 1.000000
vertex -1.000000 -1.000000 1.000000
vertex -1.000000 -1.000000 -1.000000
endloop
endfacet
facet normal -1.000000 0.000000 -0.000000
outer loop
vertex -1.000000 -1.000000 -1.000000
vertex -1.000000 -1.000000 1.000000
vertex -1.000000 1.000000 1.000000
endloop
endfacet
facet normal 0.000000 1.000000 0.000000
outer loop
vertex 1.000000 1.000000 -1.000000
vertex -1.000000 1.000000 -1.000000
vertex -1.000000 1.000000 1.000000
endloop
endfacet
endsolid Exported from Blender-2.80 (sub 75)
